<svg xmlns="http://www.w3.org/2000/svg" width="1100" height="700" viewBox="0 0 1100 700">
<rect width="100%" height="100%" fill="white"/>
<text x="90" y="30" font-family="sans-serif" font-size="20" font-weight="bold">Measured operations: descending input</text>
<line x1="90" y1="630" x2="840" y2="630" stroke="#333"/>
<line x1="90" y1="55" x2="90" y2="630" stroke="#333"/>
<text x="465" y="680" text-anchor="middle" font-family="sans-serif">Input size (n)</text>
<text transform="translate(20 342) rotate(-90)" text-anchor="middle" font-family="sans-serif">Comparisons + writes/swaps</text>
<line x1="90" y1="55" x2="90" y2="630" stroke="#e5e7eb"/>
<text x="90" y="652" text-anchor="middle" font-family="sans-serif" font-size="12">100</text>
<line x1="240" y1="55" x2="240" y2="630" stroke="#e5e7eb"/>
<text x="240" y="652" text-anchor="middle" font-family="sans-serif" font-size="12">200</text>
<line x1="390" y1="55" x2="390" y2="630" stroke="#e5e7eb"/>
<text x="390" y="652" text-anchor="middle" font-family="sans-serif" font-size="12">400</text>
<line x1="540" y1="55" x2="540" y2="630" stroke="#e5e7eb"/>
<text x="540" y="652" text-anchor="middle" font-family="sans-serif" font-size="12">800</text>
<line x1="690" y1="55" x2="690" y2="630" stroke="#e5e7eb"/>
<text x="690" y="652" text-anchor="middle" font-family="sans-serif" font-size="12">1200</text>
<line x1="840" y1="55" x2="840" y2="630" stroke="#e5e7eb"/>
<text x="840" y="652" text-anchor="middle" font-family="sans-serif" font-size="12">1600</text>
<polyline fill="none" stroke="#2563eb" stroke-width="3" points="90.0,630.0 240.0,629.9 390.0,612.1 540.0,522.4 690.0,349.2 840.0,87.5 "/>
<line x1="860" y1="55" x2="888" y2="55" stroke="#2563eb" stroke-width="3"/>
<text x="898" y="60" font-family="sans-serif" font-size="12">Insertion ArrayList</text>
<polyline fill="none" stroke="#1d4ed8" stroke-width="3" points="90.0,630.0 240.0,629.9 390.0,612.1 540.0,522.4 690.0,349.2 840.0,87.5 "/>
<line x1="860" y1="83" x2="888" y2="83" stroke="#1d4ed8" stroke-width="3"/>
<text x="898" y="88" font-family="sans-serif" font-size="12">Insertion LinkedList</text>
<polyline fill="none" stroke="#dc2626" stroke-width="3" points="90.0,630.0 240.0,630.0 390.0,604.7 540.0,500.8 690.0,318.8 840.0,55.0 "/>
<line x1="860" y1="111" x2="888" y2="111" stroke="#dc2626" stroke-width="3"/>
<text x="898" y="116" font-family="sans-serif" font-size="12">Bubble ArrayList</text>
<polyline fill="none" stroke="#b91c1c" stroke-width="3" points="90.0,630.0 240.0,630.0 390.0,604.7 540.0,500.8 690.0,318.8 840.0,55.0 "/>
<line x1="860" y1="139" x2="888" y2="139" stroke="#b91c1c" stroke-width="3"/>
<text x="898" y="144" font-family="sans-serif" font-size="12">Bubble LinkedList</text>
<polyline fill="none" stroke="#059669" stroke-width="3" points="90.0,629.8 240.0,629.5 390.0,628.7 540.0,627.1 690.0,625.5 840.0,623.7 "/>
<line x1="860" y1="167" x2="888" y2="167" stroke="#059669" stroke-width="3"/>
<text x="898" y="172" font-family="sans-serif" font-size="12">Merge ArrayList</text>
<polyline fill="none" stroke="#047857" stroke-width="3" points="90.0,629.8 240.0,629.5 390.0,628.7 540.0,627.1 690.0,625.5 840.0,623.7 "/>
<line x1="860" y1="195" x2="888" y2="195" stroke="#047857" stroke-width="3"/>
<text x="898" y="200" font-family="sans-serif" font-size="12">Merge LinkedList</text>
<polyline fill="none" stroke="#7c3aed" stroke-width="3" points="90.0,630.0 240.0,630.0 390.0,629.9 540.0,629.8 690.0,629.7 840.0,629.5 "/>
<line x1="860" y1="223" x2="888" y2="223" stroke="#7c3aed" stroke-width="3"/>
<text x="898" y="228" font-family="sans-serif" font-size="12">Built-in ArrayList</text>
<polyline fill="none" stroke="#6d28d9" stroke-width="3" points="90.0,630.0 240.0,630.0 390.0,629.9 540.0,629.8 690.0,629.7 840.0,629.5 "/>
<line x1="860" y1="251" x2="888" y2="251" stroke="#6d28d9" stroke-width="3"/>
<text x="898" y="256" font-family="sans-serif" font-size="12">Built-in LinkedList</text>
</svg>
